# MagicaVoxel @ Ephtracy

# group
o book_feather

# material
mtllib book_feather.mtl
usemtl palette

# normals
vn -1 0 0
vn 1 0 0
vn 0 0 1
vn 0 0 -1
vn 0 -1 0
vn 0 1 0

# texcoords
vt 0.0214844 0.5
vt 0.0332031 0.5
vt 0.0371094 0.5
vt 0.341797 0.5
vt 0.857422 0.5
vt 0.865234 0.5
vt 0.958984 0.5
vt 0.962891 0.5
vt 0.994141 0.5

# verts
v -0.7 0 0.7
v -0.7 0 -0.8
v -0.7 0.1 0.7
v -0.7 0.1 -0.8
v -0.6 0.1 0.7
v -0.6 0.1 -0.8
v -0.6 0.2 0.7
v -0.6 0.2 -0.8
v -0.6 0.3 0.7
v -0.6 0.3 -0.8
v -0.4 0.3 0.1
v -0.4 0.3 0
v -0.4 0.4 0.1
v -0.4 0.4 0
v -0.4 0.4 -0.1
v -0.4 0.5 0
v -0.4 0.5 -0.1
v -0.4 0.5 -0.2
v -0.4 0.5 -0.3
v -0.4 0.6 -0.1
v -0.4 0.6 -0.2
v -0.4 0.6 -0.3
v -0.4 0.6 -0.4
v -0.4 0.7 -0.1
v -0.4 0.7 -0.2
v -0.4 0.7 -0.3
v -0.4 0.7 -0.4
v -0.4 0.7 -0.5
v -0.4 0.8 -0.2
v -0.4 0.8 -0.3
v -0.4 0.9 -0.5
v -0.4 0.9 -0.6
v -0.4 1.1 -0.2
v -0.4 1.1 -0.3
v -0.4 1.2 -0.1
v -0.4 1.2 -0.2
v -0.4 1.2 -0.5
v -0.4 1.2 -0.6
v -0.4 1.3 -0.4
v -0.4 1.3 -0.5
v -0.4 1.4 -0.1
v -0.4 1.4 -0.4
v 0.1 0.2 0.7
v 0.1 0.2 -0.8
v 0.1 0.3 0.7
v 0.1 0.3 -0.8
v -0.3 0.3 0.1
v -0.3 0.3 0
v -0.3 0.4 0.1
v -0.3 0.4 0
v -0.3 0.4 -0.1
v -0.3 0.5 0
v -0.3 0.5 -0.1
v -0.3 0.5 -0.2
v -0.3 0.5 -0.3
v -0.3 0.6 -0.1
v -0.3 0.6 -0.2
v -0.3 0.6 -0.3
v -0.3 0.6 -0.4
v -0.3 0.7 -0.1
v -0.3 0.7 -0.2
v -0.3 0.7 -0.3
v -0.3 0.7 -0.4
v -0.3 0.7 -0.5
v -0.3 0.8 -0.2
v -0.3 0.8 -0.3
v -0.3 0.9 -0.5
v -0.3 0.9 -0.6
v -0.3 1.1 -0.2
v -0.3 1.1 -0.3
v -0.3 1.2 -0.1
v -0.3 1.2 -0.2
v -0.3 1.2 -0.5
v -0.3 1.2 -0.6
v -0.3 1.3 -0.4
v -0.3 1.3 -0.5
v -0.3 1.4 -0.1
v -0.3 1.4 -0.4
v 0 0.2 0.7
v 0 0.2 -0.8
v 0 0.3 0.7
v 0 0.3 -0.8
v 0.7 0.1 0.7
v 0.7 0.1 -0.8
v 0.7 0.2 0.7
v 0.7 0.2 -0.8
v 0.7 0.3 0.7
v 0.7 0.3 -0.8
v 0.8 0 0.7
v 0.8 0 -0.8
v 0.8 0.1 0.7
v 0.8 0.1 -0.8
v -0.7 0 0.7
v -0.7 0.1 0.7
v -0.6 0.1 0.7
v -0.6 0.2 0.7
v -0.6 0.3 0.7
v 0 0 0.7
v 0 0.1 0.7
v 0 0.2 0.7
v 0 0.3 0.7
v 0.1 0 0.7
v 0.1 0.1 0.7
v 0.1 0.2 0.7
v 0.1 0.3 0.7
v 0.7 0.1 0.7
v 0.7 0.2 0.7
v 0.7 0.3 0.7
v 0.8 0 0.7
v 0.8 0.1 0.7
v -0.4 0.3 0.1
v -0.4 0.4 0.1
v -0.3 0.3 0.1
v -0.3 0.4 0.1
v -0.4 0.4 0
v -0.4 0.5 0
v -0.3 0.4 0
v -0.3 0.5 0
v -0.4 0.5 -0.1
v -0.4 0.6 -0.1
v -0.4 0.7 -0.1
v -0.4 1.2 -0.1
v -0.4 1.4 -0.1
v -0.3 0.5 -0.1
v -0.3 0.6 -0.1
v -0.3 0.7 -0.1
v -0.3 1.2 -0.1
v -0.3 1.4 -0.1
v -0.4 0.7 -0.2
v -0.4 0.8 -0.2
v -0.4 1.1 -0.2
v -0.4 1.2 -0.2
v -0.3 0.7 -0.2
v -0.3 0.8 -0.2
v -0.3 1.1 -0.2
v -0.3 1.2 -0.2
v -0.4 0.8 -0.3
v -0.4 1.1 -0.3
v -0.3 0.8 -0.3
v -0.3 1.1 -0.3
v -0.4 0.3 0
v -0.4 0.4 0
v -0.3 0.3 0
v -0.3 0.4 0
v -0.4 0.4 -0.1
v -0.4 0.5 -0.1
v -0.3 0.4 -0.1
v -0.3 0.5 -0.1
v -0.4 0.5 -0.3
v -0.4 0.6 -0.3
v -0.3 0.5 -0.3
v -0.3 0.6 -0.3
v -0.4 0.6 -0.4
v -0.4 0.7 -0.4
v -0.4 1.3 -0.4
v -0.4 1.4 -0.4
v -0.3 0.6 -0.4
v -0.3 0.7 -0.4
v -0.3 1.3 -0.4
v -0.3 1.4 -0.4
v -0.4 0.7 -0.5
v -0.4 0.9 -0.5
v -0.4 1.2 -0.5
v -0.4 1.3 -0.5
v -0.3 0.7 -0.5
v -0.3 0.9 -0.5
v -0.3 1.2 -0.5
v -0.3 1.3 -0.5
v -0.4 0.9 -0.6
v -0.4 1.2 -0.6
v -0.3 0.9 -0.6
v -0.3 1.2 -0.6
v -0.7 0 -0.8
v -0.7 0.1 -0.8
v -0.6 0.1 -0.8
v -0.6 0.2 -0.8
v -0.6 0.3 -0.8
v -0.1 0 -0.8
v -0.1 0.1 -0.8
v 0 0 -0.8
v 0 0.1 -0.8
v 0 0.2 -0.8
v 0 0.3 -0.8
v 0.1 0 -0.8
v 0.1 0.1 -0.8
v 0.1 0.2 -0.8
v 0.1 0.3 -0.8
v 0.7 0.1 -0.8
v 0.7 0.2 -0.8
v 0.7 0.3 -0.8
v 0.8 0 -0.8
v 0.8 0.1 -0.8
v -0.7 0 0.7
v 0 0 0.7
v 0.1 0 0.7
v 0.8 0 0.7
v -0.2 0 -0.4
v -0.1 0 -0.4
v -0.2 0 -0.7
v -0.1 0 -0.7
v 0 0 -0.7
v -0.7 0 -0.8
v -0.1 0 -0.8
v 0 0 -0.8
v 0.1 0 -0.8
v 0.8 0 -0.8
v -0.4 0.4 0
v -0.3 0.4 0
v -0.4 0.4 -0.1
v -0.3 0.4 -0.1
v -0.4 0.5 -0.1
v -0.3 0.5 -0.1
v -0.4 0.5 -0.2
v -0.3 0.5 -0.2
v -0.4 0.5 -0.3
v -0.3 0.5 -0.3
v -0.4 0.6 -0.3
v -0.3 0.6 -0.3
v -0.4 0.6 -0.4
v -0.3 0.6 -0.4
v -0.4 0.7 -0.4
v -0.3 0.7 -0.4
v -0.4 0.7 -0.5
v -0.3 0.7 -0.5
v -0.4 0.9 -0.5
v -0.3 0.9 -0.5
v -0.4 0.9 -0.6
v -0.3 0.9 -0.6
v -0.4 1.1 -0.2
v -0.3 1.1 -0.2
v -0.4 1.1 -0.3
v -0.3 1.1 -0.3
v -0.4 1.2 -0.1
v -0.3 1.2 -0.1
v -0.4 1.2 -0.2
v -0.3 1.2 -0.2
v -0.7 0.1 0.7
v -0.6 0.1 0.7
v 0.7 0.1 0.7
v 0.8 0.1 0.7
v -0.7 0.1 -0.8
v -0.6 0.1 -0.8
v 0.7 0.1 -0.8
v 0.8 0.1 -0.8
v 0 0.2 0.7
v 0.1 0.2 0.7
v 0 0.2 -0.8
v 0.1 0.2 -0.8
v -0.6 0.3 0.7
v 0 0.3 0.7
v 0.1 0.3 0.7
v 0.7 0.3 0.7
v -0.5 0.3 0.6
v -0.1 0.3 0.6
v 0.2 0.3 0.6
v 0.6 0.3 0.6
v -0.5 0.3 0.5
v -0.1 0.3 0.5
v 0.2 0.3 0.5
v 0.6 0.3 0.5
v -0.5 0.3 0.4
v -0.1 0.3 0.4
v 0.2 0.3 0.4
v 0.6 0.3 0.4
v -0.5 0.3 0.3
v -0.1 0.3 0.3
v 0.2 0.3 0.3
v 0.6 0.3 0.3
v -0.5 0.3 0.2
v -0.1 0.3 0.2
v 0.2 0.3 0.2
v 0.6 0.3 0.2
v -0.5 0.3 0.1
v -0.4 0.3 0.1
v -0.3 0.3 0.1
v -0.1 0.3 0.1
v 0.2 0.3 0.1
v 0.6 0.3 0.1
v -0.5 0.3 0
v -0.4 0.3 0
v -0.3 0.3 0
v -0.1 0.3 0
v 0.2 0.3 0
v 0.6 0.3 0
v -0.5 0.3 -0.1
v -0.1 0.3 -0.1
v 0.2 0.3 -0.1
v 0.6 0.3 -0.1
v -0.5 0.3 -0.2
v -0.1 0.3 -0.2
v 0.2 0.3 -0.2
v 0.6 0.3 -0.2
v -0.5 0.3 -0.3
v -0.1 0.3 -0.3
v 0.2 0.3 -0.3
v 0.6 0.3 -0.3
v -0.5 0.3 -0.4
v -0.1 0.3 -0.4
v 0.2 0.3 -0.4
v 0.6 0.3 -0.4
v -0.5 0.3 -0.5
v -0.1 0.3 -0.5
v 0.2 0.3 -0.5
v 0.6 0.3 -0.5
v -0.5 0.3 -0.6
v -0.1 0.3 -0.6
v 0.2 0.3 -0.6
v 0.6 0.3 -0.6
v -0.5 0.3 -0.7
v -0.1 0.3 -0.7
v 0.2 0.3 -0.7
v 0.6 0.3 -0.7
v -0.6 0.3 -0.8
v 0 0.3 -0.8
v 0.1 0.3 -0.8
v 0.7 0.3 -0.8
v -0.4 0.4 0.1
v -0.3 0.4 0.1
v -0.4 0.4 0
v -0.3 0.4 0
v -0.4 0.5 0
v -0.3 0.5 0
v -0.4 0.5 -0.1
v -0.3 0.5 -0.1
v -0.4 0.7 -0.1
v -0.3 0.7 -0.1
v -0.4 0.7 -0.2
v -0.3 0.7 -0.2
v -0.4 0.8 -0.2
v -0.3 0.8 -0.2
v -0.4 0.8 -0.3
v -0.3 0.8 -0.3
v -0.4 1.2 -0.5
v -0.3 1.2 -0.5
v -0.4 1.2 -0.6
v -0.3 1.2 -0.6
v -0.4 1.3 -0.4
v -0.3 1.3 -0.4
v -0.4 1.3 -0.5
v -0.3 1.3 -0.5
v -0.4 1.4 -0.1
v -0.3 1.4 -0.1
v -0.4 1.4 -0.4
v -0.3 1.4 -0.4

# faces
f 3/5/1 2/5/1 1/5/1
f 4/5/1 2/5/1 3/5/1
f 7/4/1 6/4/1 5/4/1
f 8/4/1 6/4/1 7/4/1
f 9/2/1 8/2/1 7/2/1
f 10/2/1 8/2/1 9/2/1
f 13/9/1 12/9/1 11/9/1
f 14/9/1 12/9/1 13/9/1
f 16/8/1 15/8/1 14/8/1
f 17/8/1 15/8/1 16/8/1
f 20/8/1 18/8/1 17/8/1
f 21/7/1 19/7/1 18/7/1
f 21/8/1 18/8/1 20/8/1
f 22/7/1 19/7/1 21/7/1
f 24/7/1 21/7/1 20/7/1
f 25/8/1 22/8/1 21/8/1
f 25/7/1 21/7/1 24/7/1
f 26/7/1 23/7/1 22/7/1
f 26/8/1 22/8/1 25/8/1
f 27/7/1 23/7/1 26/7/1
f 29/7/1 28/7/1 27/7/1
f 29/7/1 27/7/1 26/7/1
f 29/7/1 26/7/1 25/7/1
f 30/7/1 28/7/1 29/7/1
f 31/7/1 28/7/1 30/7/1
f 34/7/1 31/7/1 30/7/1
f 34/7/1 32/7/1 31/7/1
f 36/7/1 34/7/1 33/7/1
f 37/7/1 32/7/1 34/7/1
f 37/7/1 34/7/1 36/7/1
f 38/7/1 32/7/1 37/7/1
f 39/7/1 36/7/1 35/7/1
f 39/7/1 37/7/1 36/7/1
f 40/7/1 37/7/1 39/7/1
f 41/7/1 39/7/1 35/7/1
f 42/7/1 39/7/1 41/7/1
f 45/2/1 44/2/1 43/2/1
f 46/2/1 44/2/1 45/2/1
f 47/9/2 48/9/2 49/9/2
f 49/9/2 48/9/2 50/9/2
f 50/8/2 51/8/2 52/8/2
f 52/8/2 51/8/2 53/8/2
f 53/8/2 54/8/2 56/8/2
f 54/7/2 55/7/2 57/7/2
f 56/8/2 54/8/2 57/8/2
f 57/7/2 55/7/2 58/7/2
f 56/7/2 57/7/2 60/7/2
f 57/8/2 58/8/2 61/8/2
f 60/7/2 57/7/2 61/7/2
f 58/7/2 59/7/2 62/7/2
f 61/8/2 58/8/2 62/8/2
f 62/7/2 59/7/2 63/7/2
f 63/7/2 64/7/2 65/7/2
f 62/7/2 63/7/2 65/7/2
f 61/7/2 62/7/2 65/7/2
f 65/7/2 64/7/2 66/7/2
f 66/7/2 64/7/2 67/7/2
f 66/7/2 67/7/2 70/7/2
f 67/7/2 68/7/2 70/7/2
f 69/7/2 70/7/2 72/7/2
f 70/7/2 68/7/2 73/7/2
f 72/7/2 70/7/2 73/7/2
f 73/7/2 68/7/2 74/7/2
f 71/7/2 72/7/2 75/7/2
f 72/7/2 73/7/2 75/7/2
f 75/7/2 73/7/2 76/7/2
f 71/7/2 75/7/2 77/7/2
f 77/7/2 75/7/2 78/7/2
f 79/2/2 80/2/2 81/2/2
f 81/2/2 80/2/2 82/2/2
f 83/4/2 84/4/2 85/4/2
f 85/4/2 84/4/2 86/4/2
f 85/2/2 86/2/2 87/2/2
f 87/2/2 86/2/2 88/2/2
f 89/5/2 90/5/2 91/5/2
f 91/5/2 90/5/2 92/5/2
f 95/5/3 94/5/3 93/5/3
f 98/5/3 95/5/3 93/5/3
f 99/4/3 96/4/3 95/4/3
f 99/5/3 95/5/3 98/5/3
f 100/2/3 97/2/3 96/2/3
f 100/4/3 96/4/3 99/4/3
f 101/2/3 97/2/3 100/2/3
f 102/6/3 99/6/3 98/6/3
f 103/2/3 100/2/3 99/2/3
f 103/6/3 99/6/3 102/6/3
f 104/2/3 100/2/3 103/2/3
f 106/5/3 103/5/3 102/5/3
f 106/4/3 104/4/3 103/4/3
f 107/2/3 105/2/3 104/2/3
f 107/4/3 104/4/3 106/4/3
f 108/2/3 105/2/3 107/2/3
f 109/5/3 106/5/3 102/5/3
f 110/5/3 106/5/3 109/5/3
f 113/9/3 112/9/3 111/9/3
f 114/9/3 112/9/3 113/9/3
f 117/8/3 116/8/3 115/8/3
f 118/8/3 116/8/3 117/8/3
f 124/8/3 120/8/3 119/8/3
f 125/7/3 121/7/3 120/7/3
f 125/8/3 120/8/3 124/8/3
f 126/7/3 121/7/3 125/7/3
f 127/7/3 123/7/3 122/7/3
f 128/7/3 123/7/3 127/7/3
f 133/7/3 130/7/3 129/7/3
f 134/7/3 130/7/3 133/7/3
f 135/7/3 132/7/3 131/7/3
f 136/7/3 132/7/3 135/7/3
f 139/7/3 138/7/3 137/7/3
f 140/7/3 138/7/3 139/7/3
f 141/9/4 142/9/4 143/9/4
f 143/9/4 142/9/4 144/9/4
f 145/8/4 146/8/4 147/8/4
f 147/8/4 146/8/4 148/8/4
f 149/7/4 150/7/4 151/7/4
f 151/7/4 150/7/4 152/7/4
f 153/7/4 154/7/4 157/7/4
f 157/7/4 154/7/4 158/7/4
f 155/7/4 156/7/4 159/7/4
f 159/7/4 156/7/4 160/7/4
f 161/7/4 162/7/4 165/7/4
f 165/7/4 162/7/4 166/7/4
f 163/7/4 164/7/4 167/7/4
f 167/7/4 164/7/4 168/7/4
f 169/7/4 170/7/4 171/7/4
f 171/7/4 170/7/4 172/7/4
f 173/5/4 174/5/4 175/5/4
f 173/5/4 175/5/4 178/5/4
f 175/4/4 176/4/4 179/4/4
f 178/5/4 175/5/4 179/5/4
f 178/1/4 179/1/4 180/1/4
f 179/4/4 176/4/4 181/4/4
f 180/1/4 179/1/4 181/1/4
f 176/2/4 177/2/4 182/2/4
f 181/4/4 176/4/4 182/4/4
f 182/2/4 177/2/4 183/2/4
f 180/6/4 181/6/4 184/6/4
f 181/2/4 182/2/4 185/2/4
f 184/6/4 181/6/4 185/6/4
f 185/2/4 182/2/4 186/2/4
f 184/5/4 185/5/4 188/5/4
f 185/4/4 186/4/4 188/4/4
f 186/2/4 187/2/4 189/2/4
f 188/4/4 186/4/4 189/4/4
f 189/2/4 187/2/4 190/2/4
f 184/5/4 188/5/4 191/5/4
f 191/5/4 188/5/4 192/5/4
f 197/5/5 194/5/5 193/5/5
f 198/5/5 194/5/5 197/5/5
f 199/5/5 197/5/5 193/5/5
f 199/1/5 198/1/5 197/1/5
f 200/5/5 194/5/5 198/5/5
f 200/1/5 198/1/5 199/1/5
f 201/6/5 195/6/5 194/6/5
f 201/5/5 194/5/5 200/5/5
f 202/5/5 200/5/5 199/5/5
f 202/5/5 199/5/5 193/5/5
f 203/1/5 201/1/5 200/1/5
f 203/5/5 200/5/5 202/5/5
f 204/6/5 195/6/5 201/6/5
f 204/1/5 201/1/5 203/1/5
f 205/5/5 196/5/5 195/5/5
f 205/6/5 195/6/5 204/6/5
f 206/5/5 196/5/5 205/5/5
f 209/8/5 208/8/5 207/8/5
f 210/8/5 208/8/5 209/8/5
f 213/8/5 212/8/5 211/8/5
f 214/8/5 212/8/5 213/8/5
f 215/7/5 214/7/5 213/7/5
f 216/7/5 214/7/5 215/7/5
f 219/7/5 218/7/5 217/7/5
f 220/7/5 218/7/5 219/7/5
f 223/7/5 222/7/5 221/7/5
f 224/7/5 222/7/5 223/7/5
f 227/7/5 226/7/5 225/7/5
f 228/7/5 226/7/5 227/7/5
f 231/7/5 230/7/5 229/7/5
f 232/7/5 230/7/5 231/7/5
f 235/7/5 234/7/5 233/7/5
f 236/7/5 234/7/5 235/7/5
f 237/5/6 238/5/6 241/5/6
f 241/5/6 238/5/6 242/5/6
f 239/5/6 240/5/6 243/5/6
f 243/5/6 240/5/6 244/5/6
f 245/2/6 246/2/6 247/2/6
f 247/2/6 246/2/6 248/2/6
f 249/2/6 250/2/6 253/2/6
f 253/2/6 250/2/6 254/2/6
f 251/2/6 252/2/6 255/2/6
f 255/2/6 252/2/6 256/2/6
f 249/2/6 253/2/6 257/2/6
f 253/3/6 254/3/6 257/3/6
f 254/2/6 250/2/6 258/2/6
f 257/3/6 254/3/6 258/3/6
f 255/3/6 256/3/6 259/3/6
f 251/2/6 255/2/6 259/2/6
f 256/2/6 252/2/6 260/2/6
f 259/3/6 256/3/6 260/3/6
f 249/2/6 257/2/6 261/2/6
f 257/2/6 258/2/6 261/2/6
f 258/2/6 250/2/6 262/2/6
f 261/2/6 258/2/6 262/2/6
f 251/2/6 259/2/6 263/2/6
f 259/2/6 260/2/6 263/2/6
f 260/2/6 252/2/6 264/2/6
f 263/2/6 260/2/6 264/2/6
f 249/2/6 261/2/6 265/2/6
f 261/3/6 262/3/6 265/3/6
f 262/2/6 250/2/6 266/2/6
f 265/3/6 262/3/6 266/3/6
f 251/2/6 263/2/6 267/2/6
f 263/3/6 264/3/6 267/3/6
f 264/2/6 252/2/6 268/2/6
f 267/3/6 264/3/6 268/3/6
f 249/2/6 265/2/6 269/2/6
f 265/2/6 266/2/6 269/2/6
f 266/2/6 250/2/6 270/2/6
f 269/2/6 266/2/6 270/2/6
f 251/2/6 267/2/6 271/2/6
f 267/2/6 268/2/6 271/2/6
f 268/2/6 252/2/6 272/2/6
f 271/2/6 268/2/6 272/2/6
f 249/2/6 269/2/6 273/2/6
f 269/3/6 270/3/6 273/3/6
f 273/3/6 270/3/6 274/3/6
f 274/3/6 270/3/6 275/3/6
f 270/2/6 250/2/6 276/2/6
f 275/3/6 270/3/6 276/3/6
f 251/2/6 271/2/6 277/2/6
f 271/3/6 272/3/6 277/3/6
f 272/2/6 252/2/6 278/2/6
f 277/3/6 272/3/6 278/3/6
f 249/2/6 273/2/6 279/2/6
f 273/2/6 274/2/6 279/2/6
f 279/2/6 274/2/6 280/2/6
f 275/2/6 276/2/6 281/2/6
f 276/2/6 250/2/6 282/2/6
f 281/2/6 276/2/6 282/2/6
f 251/2/6 277/2/6 283/2/6
f 277/2/6 278/2/6 283/2/6
f 278/2/6 252/2/6 284/2/6
f 283/2/6 278/2/6 284/2/6
f 280/3/6 281/3/6 285/3/6
f 279/3/6 280/3/6 285/3/6
f 281/3/6 282/3/6 285/3/6
f 249/2/6 279/2/6 285/2/6
f 282/2/6 250/2/6 286/2/6
f 285/3/6 282/3/6 286/3/6
f 251/2/6 283/2/6 287/2/6
f 283/3/6 284/3/6 287/3/6
f 284/2/6 252/2/6 288/2/6
f 287/3/6 284/3/6 288/3/6
f 249/2/6 285/2/6 289/2/6
f 285/2/6 286/2/6 289/2/6
f 286/2/6 250/2/6 290/2/6
f 289/2/6 286/2/6 290/2/6
f 251/2/6 287/2/6 291/2/6
f 287/2/6 288/2/6 291/2/6
f 288/2/6 252/2/6 292/2/6
f 291/2/6 288/2/6 292/2/6
f 249/2/6 289/2/6 293/2/6
f 289/3/6 290/3/6 293/3/6
f 290/2/6 250/2/6 294/2/6
f 293/3/6 290/3/6 294/3/6
f 251/2/6 291/2/6 295/2/6
f 291/3/6 292/3/6 295/3/6
f 292/2/6 252/2/6 296/2/6
f 295/3/6 292/3/6 296/3/6
f 249/2/6 293/2/6 297/2/6
f 293/2/6 294/2/6 297/2/6
f 294/2/6 250/2/6 298/2/6
f 297/2/6 294/2/6 298/2/6
f 251/2/6 295/2/6 299/2/6
f 295/2/6 296/2/6 299/2/6
f 296/2/6 252/2/6 300/2/6
f 299/2/6 296/2/6 300/2/6
f 249/2/6 297/2/6 301/2/6
f 297/3/6 298/3/6 301/3/6
f 298/2/6 250/2/6 302/2/6
f 301/3/6 298/3/6 302/3/6
f 251/2/6 299/2/6 303/2/6
f 299/3/6 300/3/6 303/3/6
f 300/2/6 252/2/6 304/2/6
f 303/3/6 300/3/6 304/3/6
f 249/2/6 301/2/6 305/2/6
f 301/2/6 302/2/6 305/2/6
f 302/2/6 250/2/6 306/2/6
f 305/2/6 302/2/6 306/2/6
f 251/2/6 303/2/6 307/2/6
f 303/2/6 304/2/6 307/2/6
f 304/2/6 252/2/6 308/2/6
f 307/2/6 304/2/6 308/2/6
f 249/2/6 305/2/6 309/2/6
f 305/3/6 306/3/6 309/3/6
f 306/2/6 250/2/6 310/2/6
f 309/3/6 306/3/6 310/3/6
f 251/2/6 307/2/6 311/2/6
f 307/3/6 308/3/6 311/3/6
f 308/2/6 252/2/6 312/2/6
f 311/3/6 308/3/6 312/3/6
f 249/2/6 309/2/6 313/2/6
f 309/2/6 310/2/6 313/2/6
f 310/2/6 250/2/6 314/2/6
f 313/2/6 310/2/6 314/2/6
f 251/2/6 311/2/6 315/2/6
f 311/2/6 312/2/6 315/2/6
f 312/2/6 252/2/6 316/2/6
f 315/2/6 312/2/6 316/2/6
f 317/9/6 318/9/6 319/9/6
f 319/9/6 318/9/6 320/9/6
f 321/8/6 322/8/6 323/8/6
f 323/8/6 322/8/6 324/8/6
f 325/7/6 326/7/6 327/7/6
f 327/7/6 326/7/6 328/7/6
f 329/7/6 330/7/6 331/7/6
f 331/7/6 330/7/6 332/7/6
f 333/7/6 334/7/6 335/7/6
f 335/7/6 334/7/6 336/7/6
f 337/7/6 338/7/6 339/7/6
f 339/7/6 338/7/6 340/7/6
f 341/7/6 342/7/6 343/7/6
f 343/7/6 342/7/6 344/7/6
