# MagicaVoxel @ Ephtracy

# group
o indicator_execution

# material
mtllib indicator_execution.mtl
usemtl palette

# normals
vn -1 0 0
vn 1 0 0
vn 0 0 1
vn 0 0 -1
vn 0 -1 0
vn 0 1 0

# texcoords
vt 0.537109 0.5
vt 0.841797 0.5
vt 0.970703 0.5
vt 0.982422 0.5
vt 0.994141 0.5

# verts
v -1.4 0 0.0999999
v -1.4 0 -0.1
v -1.4 1.3 0.0999999
v -1.4 1.3 -0.1
v -1.3 1.3 0.0999999
v -1.3 1.3 -0.1
v -1.3 3.6 0.0999999
v -1.3 3.6 -0.1
v 0.3 0.9 0.0999999
v 0.3 0.9 -0.1
v 0.3 1 0.0999999
v 0.3 1 -0.1
v 0.4 1 0.0999999
v 0.4 1 -0.1
v 0.4 1.2 0.0999999
v 0.4 1.2 -0.1
v 0.5 1.2 0.0999999
v 0.5 1.2 -0.1
v 0.5 1.3 0.0999999
v 0.5 1.3 -0.1
v 0.9 1.3 0.0999999
v 0.9 1.3 -0.1
v 0.9 3 0.0999999
v 0.9 3 -0.1
v -0.9 1.3 0.0999999
v -0.9 1.3 -0.1
v -0.9 2.2 0.0999999
v -0.9 2.2 -0.1
v -0.7 2.2 0.0999999
v -0.7 2.2 -0.1
v -0.7 2.3 0.0999999
v -0.7 2.3 -0.1
v -0.5 1.2 0.0999999
v -0.5 1.2 -0.1
v -0.5 1.3 0.0999999
v -0.5 1.3 -0.1
v -0.5 2.3 0.0999999
v -0.5 2.3 -0.1
v -0.5 2.4 0.0999999
v -0.5 2.4 -0.1
v -0.4 1 0.0999999
v -0.4 1 -0.1
v -0.4 1.2 0.0999999
v -0.4 1.2 -0.1
v -0.3 0.9 0.0999999
v -0.3 0.9 -0.1
v -0.3 1 0.0999999
v -0.3 1 -0.1
v -0.3 2.4 0.0999999
v -0.3 2.4 -0.1
v -0.3 2.5 0.0999999
v -0.3 2.5 -0.1
v -0.1 2.5 0.0999999
v -0.1 2.5 -0.1
v -0.1 2.6 0.0999999
v -0.1 2.6 -0.1
v 0.1 2.6 0.0999999
v 0.1 2.6 -0.1
v 0.1 2.7 0.0999999
v 0.1 2.7 -0.1
v 0.3 2.7 0.0999999
v 0.3 2.7 -0.1
v 0.3 2.8 0.0999999
v 0.3 2.8 -0.1
v 0.5 2.8 0.0999999
v 0.5 2.8 -0.1
v 0.5 2.9 0.0999999
v 0.5 2.9 -0.1
v 0.7 2.9 0.0999999
v 0.7 2.9 -0.1
v 0.7 3 0.0999999
v 0.7 3 -0.1
v 1.3 1.3 0.0999999
v 1.3 1.3 -0.1
v 1.3 3.6 0.0999999
v 1.3 3.6 -0.1
v 1.4 0 0.0999999
v 1.4 0 -0.1
v 1.4 1.3 0.0999999
v 1.4 1.3 -0.1
v -1.4 0 0.0999999
v -1.4 1.3 0.0999999
v -1.3 0.1 0.0999999
v -1.3 1.2 0.0999999
v -1.3 1.3 0.0999999
v -1.3 3.6 0.0999999
v -1.2 1.3 0.0999999
v -1.2 3.5 0.0999999
v -1 1.3 0.0999999
v -1 3.3 0.0999999
v -0.9 1.3 0.0999999
v -0.9 2.2 0.0999999
v -0.9 2.3 0.0999999
v -0.9 2.4 0.0999999
v -0.9 3.2 0.0999999
v -0.8 2.4 0.0999999
v -0.8 2.5 0.0999999
v -0.7 2.2 0.0999999
v -0.7 2.3 0.0999999
v -0.7 2.4 0.0999999
v -0.6 0.6 0.0999999
v -0.6 0.7 0.0999999
v -0.6 0.8 0.0999999
v -0.6 0.9 0.0999999
v -0.6 2.5 0.0999999
v -0.6 2.6 0.0999999
v -0.5 0.6 0.0999999
v -0.5 0.7 0.0999999
v -0.5 0.8 0.0999999
v -0.5 0.9 0.0999999
v -0.5 1 0.0999999
v -0.5 1.2 0.0999999
v -0.5 1.3 0.0999999
v -0.5 2.3 0.0999999
v -0.5 2.4 0.0999999
v -0.5 2.5 0.0999999
v -0.4 0.6 0.0999999
v -0.4 0.7 0.0999999
v -0.4 0.8 0.0999999
v -0.4 0.9 0.0999999
v -0.4 1 0.0999999
v -0.4 1.2 0.0999999
v -0.4 2.6 0.0999999
v -0.4 2.7 0.0999999
v -0.3 0.7 0.0999999
v -0.3 0.8 0.0999999
v -0.3 0.9 0.0999999
v -0.3 1 0.0999999
v -0.3 2.4 0.0999999
v -0.3 2.5 0.0999999
v -0.3 2.6 0.0999999
v -0.2 0.6 0.0999999
v -0.2 0.7 0.0999999
v -0.2 2.7 0.0999999
v -0.2 2.8 0.0999999
v -0.1 0.4 0.0999999
v -0.1 0.5 0.0999999
v -0.1 2.5 0.0999999
v -0.1 2.6 0.0999999
v -0.1 2.7 0.0999999
v 0 0.4 0.0999999
v 0 0.5 0.0999999
v 0 0.6 0.0999999
v 0 0.7 0.0999999
v 0 2.8 0.0999999
v 0 2.9 0.0999999
v 0.1 0.6 0.0999999
v 0.1 0.7 0.0999999
v 0.1 2.6 0.0999999
v 0.1 2.7 0.0999999
v 0.1 2.8 0.0999999
v 0.2 0.4 0.0999999
v 0.2 0.5 0.0999999
v 0.2 0.6 0.0999999
v 0.2 0.7 0.0999999
v 0.2 2.9 0.0999999
v 0.2 3 0.0999999
v 0.3 0.4 0.0999999
v 0.3 0.5 0.0999999
v 0.3 0.6 0.0999999
v 0.3 0.8 0.0999999
v 0.3 0.9 0.0999999
v 0.3 1 0.0999999
v 0.3 2.7 0.0999999
v 0.3 2.8 0.0999999
v 0.3 2.9 0.0999999
v 0.4 0.7 0.0999999
v 0.4 0.8 0.0999999
v 0.4 0.9 0.0999999
v 0.4 1 0.0999999
v 0.4 1.2 0.0999999
v 0.4 3 0.0999999
v 0.4 3.1 0.0999999
v 0.5 0.5 0.0999999
v 0.5 0.6 0.0999999
v 0.5 0.7 0.0999999
v 0.5 0.8 0.0999999
v 0.5 0.9 0.0999999
v 0.5 1 0.0999999
v 0.5 1.2 0.0999999
v 0.5 1.3 0.0999999
v 0.5 2.8 0.0999999
v 0.5 2.9 0.0999999
v 0.5 3 0.0999999
v 0.6 0.5 0.0999999
v 0.6 0.6 0.0999999
v 0.6 0.8 0.0999999
v 0.6 0.9 0.0999999
v 0.6 3.1 0.0999999
v 0.6 3.2 0.0999999
v 0.7 2.9 0.0999999
v 0.7 3 0.0999999
v 0.7 3.1 0.0999999
v 0.9 1.3 0.0999999
v 0.9 3 0.0999999
v 0.9 3.1 0.0999999
v 0.9 3.2 0.0999999
v 1 1.3 0.0999999
v 1 3.3 0.0999999
v 1.2 1.3 0.0999999
v 1.2 3.5 0.0999999
v 1.3 0.1 0.0999999
v 1.3 1.2 0.0999999
v 1.3 1.3 0.0999999
v 1.3 3.6 0.0999999
v 1.4 0 0.0999999
v 1.4 1.3 0.0999999
v -1.4 0 -0.1
v -1.4 1.3 -0.1
v -1.3 0.1 -0.1
v -1.3 1.2 -0.1
v -1.3 1.3 -0.1
v -1.3 3.6 -0.1
v -1.2 1.3 -0.1
v -1.2 3.5 -0.1
v -1 1.3 -0.1
v -1 3.3 -0.1
v -0.9 1.3 -0.1
v -0.9 2.2 -0.1
v -0.9 2.3 -0.1
v -0.9 2.4 -0.1
v -0.9 3.2 -0.1
v -0.8 2.4 -0.1
v -0.8 2.5 -0.1
v -0.7 2.2 -0.1
v -0.7 2.3 -0.1
v -0.7 2.4 -0.1
v -0.6 0.6 -0.1
v -0.6 0.7 -0.1
v -0.6 0.8 -0.1
v -0.6 0.9 -0.1
v -0.6 2.5 -0.1
v -0.6 2.6 -0.1
v -0.5 0.6 -0.1
v -0.5 0.7 -0.1
v -0.5 0.8 -0.1
v -0.5 0.9 -0.1
v -0.5 1 -0.1
v -0.5 1.2 -0.1
v -0.5 1.3 -0.1
v -0.5 2.3 -0.1
v -0.5 2.4 -0.1
v -0.5 2.5 -0.1
v -0.4 0.6 -0.1
v -0.4 0.7 -0.1
v -0.4 0.8 -0.1
v -0.4 0.9 -0.1
v -0.4 1 -0.1
v -0.4 1.2 -0.1
v -0.4 2.6 -0.1
v -0.4 2.7 -0.1
v -0.3 0.7 -0.1
v -0.3 0.8 -0.1
v -0.3 0.9 -0.1
v -0.3 1 -0.1
v -0.3 2.4 -0.1
v -0.3 2.5 -0.1
v -0.3 2.6 -0.1
v -0.2 0.6 -0.1
v -0.2 0.7 -0.1
v -0.2 2.7 -0.1
v -0.2 2.8 -0.1
v -0.1 0.4 -0.1
v -0.1 0.5 -0.1
v -0.1 2.5 -0.1
v -0.1 2.6 -0.1
v -0.1 2.7 -0.1
v 0 0.4 -0.1
v 0 0.5 -0.1
v 0 0.6 -0.1
v 0 0.7 -0.1
v 0 2.8 -0.1
v 0 2.9 -0.1
v 0.1 0.6 -0.1
v 0.1 0.7 -0.1
v 0.1 2.6 -0.1
v 0.1 2.7 -0.1
v 0.1 2.8 -0.1
v 0.2 0.4 -0.1
v 0.2 0.5 -0.1
v 0.2 0.6 -0.1
v 0.2 0.7 -0.1
v 0.2 2.9 -0.1
v 0.2 3 -0.1
v 0.3 0.4 -0.1
v 0.3 0.5 -0.1
v 0.3 0.6 -0.1
v 0.3 0.8 -0.1
v 0.3 0.9 -0.1
v 0.3 1 -0.1
v 0.3 2.7 -0.1
v 0.3 2.8 -0.1
v 0.3 2.9 -0.1
v 0.4 0.7 -0.1
v 0.4 0.8 -0.1
v 0.4 0.9 -0.1
v 0.4 1 -0.1
v 0.4 1.2 -0.1
v 0.4 3 -0.1
v 0.4 3.1 -0.1
v 0.5 0.5 -0.1
v 0.5 0.6 -0.1
v 0.5 0.7 -0.1
v 0.5 0.8 -0.1
v 0.5 0.9 -0.1
v 0.5 1 -0.1
v 0.5 1.2 -0.1
v 0.5 1.3 -0.1
v 0.5 2.8 -0.1
v 0.5 2.9 -0.1
v 0.5 3 -0.1
v 0.6 0.5 -0.1
v 0.6 0.6 -0.1
v 0.6 0.8 -0.1
v 0.6 0.9 -0.1
v 0.6 3.1 -0.1
v 0.6 3.2 -0.1
v 0.7 2.9 -0.1
v 0.7 3 -0.1
v 0.7 3.1 -0.1
v 0.9 1.3 -0.1
v 0.9 3 -0.1
v 0.9 3.1 -0.1
v 0.9 3.2 -0.1
v 1 1.3 -0.1
v 1 3.3 -0.1
v 1.2 1.3 -0.1
v 1.2 3.5 -0.1
v 1.3 0.1 -0.1
v 1.3 1.2 -0.1
v 1.3 1.3 -0.1
v 1.3 3.6 -0.1
v 1.4 0 -0.1
v 1.4 1.3 -0.1
v -1.4 0 0.0999999
v 1.4 0 0.0999999
v -1.4 0 -0.1
v 1.4 0 -0.1
v -0.9 2.2 0.0999999
v -0.7 2.2 0.0999999
v -0.9 2.2 -0.1
v -0.7 2.2 -0.1
v -0.7 2.3 0.0999999
v -0.5 2.3 0.0999999
v -0.7 2.3 -0.1
v -0.5 2.3 -0.1
v -0.5 2.4 0.0999999
v -0.3 2.4 0.0999999
v -0.5 2.4 -0.1
v -0.3 2.4 -0.1
v -0.3 2.5 0.0999999
v -0.1 2.5 0.0999999
v -0.3 2.5 -0.1
v -0.1 2.5 -0.1
v -0.1 2.6 0.0999999
v 0.1 2.6 0.0999999
v -0.1 2.6 -0.1
v 0.1 2.6 -0.1
v 0.1 2.7 0.0999999
v 0.3 2.7 0.0999999
v 0.1 2.7 -0.1
v 0.3 2.7 -0.1
v 0.3 2.8 0.0999999
v 0.5 2.8 0.0999999
v 0.3 2.8 -0.1
v 0.5 2.8 -0.1
v 0.5 2.9 0.0999999
v 0.7 2.9 0.0999999
v 0.5 2.9 -0.1
v 0.7 2.9 -0.1
v 0.7 3 0.0999999
v 0.9 3 0.0999999
v 0.7 3 -0.1
v 0.9 3 -0.1
v -0.3 0.9 0.0999999
v 0.3 0.9 0.0999999
v -0.3 0.9 -0.1
v 0.3 0.9 -0.1
v -0.4 1 0.0999999
v -0.3 1 0.0999999
v 0.3 1 0.0999999
v 0.4 1 0.0999999
v -0.4 1 -0.1
v -0.3 1 -0.1
v 0.3 1 -0.1
v 0.4 1 -0.1
v -0.5 1.2 0.0999999
v -0.4 1.2 0.0999999
v 0.4 1.2 0.0999999
v 0.5 1.2 0.0999999
v -0.5 1.2 -0.1
v -0.4 1.2 -0.1
v 0.4 1.2 -0.1
v 0.5 1.2 -0.1
v -1.4 1.3 0.0999999
v -1.3 1.3 0.0999999
v -0.9 1.3 0.0999999
v -0.5 1.3 0.0999999
v 0.5 1.3 0.0999999
v 0.9 1.3 0.0999999
v 1.3 1.3 0.0999999
v 1.4 1.3 0.0999999
v -1.4 1.3 -0.1
v -1.3 1.3 -0.1
v -0.9 1.3 -0.1
v -0.5 1.3 -0.1
v 0.5 1.3 -0.1
v 0.9 1.3 -0.1
v 1.3 1.3 -0.1
v 1.4 1.3 -0.1
v -1.3 3.6 0.0999999
v 1.3 3.6 0.0999999
v -1.3 3.6 -0.1
v 1.3 3.6 -0.1

# faces
f 3/5/1 2/5/1 1/5/1
f 4/5/1 2/5/1 3/5/1
f 7/5/1 6/5/1 5/5/1
f 8/5/1 6/5/1 7/5/1
f 11/5/1 10/5/1 9/5/1
f 12/5/1 10/5/1 11/5/1
f 15/5/1 14/5/1 13/5/1
f 16/5/1 14/5/1 15/5/1
f 19/5/1 18/5/1 17/5/1
f 20/5/1 18/5/1 19/5/1
f 23/5/1 22/5/1 21/5/1
f 24/5/1 22/5/1 23/5/1
f 25/5/2 26/5/2 27/5/2
f 27/5/2 26/5/2 28/5/2
f 29/5/2 30/5/2 31/5/2
f 31/5/2 30/5/2 32/5/2
f 33/5/2 34/5/2 35/5/2
f 35/5/2 34/5/2 36/5/2
f 37/5/2 38/5/2 39/5/2
f 39/5/2 38/5/2 40/5/2
f 41/5/2 42/5/2 43/5/2
f 43/5/2 42/5/2 44/5/2
f 45/5/2 46/5/2 47/5/2
f 47/5/2 46/5/2 48/5/2
f 49/5/2 50/5/2 51/5/2
f 51/5/2 50/5/2 52/5/2
f 53/5/2 54/5/2 55/5/2
f 55/5/2 54/5/2 56/5/2
f 57/5/2 58/5/2 59/5/2
f 59/5/2 58/5/2 60/5/2
f 61/5/2 62/5/2 63/5/2
f 63/5/2 62/5/2 64/5/2
f 65/5/2 66/5/2 67/5/2
f 67/5/2 66/5/2 68/5/2
f 69/5/2 70/5/2 71/5/2
f 71/5/2 70/5/2 72/5/2
f 73/5/2 74/5/2 75/5/2
f 75/5/2 74/5/2 76/5/2
f 77/5/2 78/5/2 79/5/2
f 79/5/2 78/5/2 80/5/2
f 83/5/3 82/5/3 81/5/3
f 84/5/3 82/5/3 83/5/3
f 85/5/3 82/5/3 84/5/3
f 87/5/3 85/5/3 84/5/3
f 87/5/3 86/5/3 85/5/3
f 88/5/3 86/5/3 87/5/3
f 89/5/3 87/5/3 84/5/3
f 89/1/3 88/1/3 87/1/3
f 90/1/3 88/1/3 89/1/3
f 91/5/3 89/5/3 84/5/3
f 91/5/3 90/5/3 89/5/3
f 92/5/3 90/5/3 91/5/3
f 93/5/3 90/5/3 92/5/3
f 94/5/3 90/5/3 93/5/3
f 95/5/3 90/5/3 94/5/3
f 96/3/3 94/3/3 93/3/3
f 96/4/3 95/4/3 94/4/3
f 97/4/3 95/4/3 96/4/3
f 98/5/3 93/5/3 92/5/3
f 99/3/3 96/3/3 93/3/3
f 99/5/3 93/5/3 98/5/3
f 99/3/3 97/3/3 96/3/3
f 100/3/3 97/3/3 99/3/3
f 101/1/3 84/1/3 83/1/3
f 102/1/3 84/1/3 101/1/3
f 103/1/3 84/1/3 102/1/3
f 104/1/3 84/1/3 103/1/3
f 105/3/3 97/3/3 100/3/3
f 105/4/3 95/4/3 97/4/3
f 106/4/3 95/4/3 105/4/3
f 107/1/3 101/1/3 83/1/3
f 107/2/3 102/2/3 101/2/3
f 108/1/3 103/1/3 102/1/3
f 108/2/3 102/2/3 107/2/3
f 109/2/3 104/2/3 103/2/3
f 109/1/3 103/1/3 108/1/3
f 110/1/3 84/1/3 104/1/3
f 110/2/3 104/2/3 109/2/3
f 111/1/3 84/1/3 110/1/3
f 112/5/3 91/5/3 84/5/3
f 112/1/3 84/1/3 111/1/3
f 113/5/3 91/5/3 112/5/3
f 114/5/3 100/5/3 99/5/3
f 115/3/3 106/3/3 105/3/3
f 115/5/3 100/5/3 114/5/3
f 115/3/3 105/3/3 100/3/3
f 116/3/3 106/3/3 115/3/3
f 117/1/3 109/1/3 108/1/3
f 117/1/3 111/1/3 110/1/3
f 117/1/3 108/1/3 107/1/3
f 117/1/3 110/1/3 109/1/3
f 117/1/3 107/1/3 83/1/3
f 118/1/3 111/1/3 117/1/3
f 119/1/3 111/1/3 118/1/3
f 120/1/3 111/1/3 119/1/3
f 121/5/3 112/5/3 111/5/3
f 121/1/3 111/1/3 120/1/3
f 122/5/3 112/5/3 121/5/3
f 123/3/3 106/3/3 116/3/3
f 123/4/3 95/4/3 106/4/3
f 124/4/3 95/4/3 123/4/3
f 125/2/3 118/2/3 117/2/3
f 125/1/3 119/1/3 118/1/3
f 126/2/3 120/2/3 119/2/3
f 126/1/3 119/1/3 125/1/3
f 127/5/3 121/5/3 120/5/3
f 127/2/3 120/2/3 126/2/3
f 128/5/3 121/5/3 127/5/3
f 129/5/3 116/5/3 115/5/3
f 130/3/3 124/3/3 123/3/3
f 130/5/3 116/5/3 129/5/3
f 130/3/3 123/3/3 116/3/3
f 131/3/3 124/3/3 130/3/3
f 132/2/3 125/2/3 117/2/3
f 132/2/3 126/2/3 125/2/3
f 132/1/3 117/1/3 83/1/3
f 133/2/3 126/2/3 132/2/3
f 134/4/3 95/4/3 124/4/3
f 134/3/3 124/3/3 131/3/3
f 135/4/3 95/4/3 134/4/3
f 136/1/3 133/1/3 132/1/3
f 136/1/3 132/1/3 83/1/3
f 137/1/3 133/1/3 136/1/3
f 138/5/3 131/5/3 130/5/3
f 139/3/3 135/3/3 134/3/3
f 139/5/3 131/5/3 138/5/3
f 139/3/3 134/3/3 131/3/3
f 140/3/3 135/3/3 139/3/3
f 141/2/3 137/2/3 136/2/3
f 141/1/3 136/1/3 83/1/3
f 142/1/3 133/1/3 137/1/3
f 142/2/3 137/2/3 141/2/3
f 143/1/3 133/1/3 142/1/3
f 144/2/3 126/2/3 133/2/3
f 144/1/3 133/1/3 143/1/3
f 145/4/3 95/4/3 135/4/3
f 145/3/3 135/3/3 140/3/3
f 146/4/3 95/4/3 145/4/3
f 147/1/3 143/1/3 142/1/3
f 147/2/3 144/2/3 143/2/3
f 147/1/3 142/1/3 141/1/3
f 148/2/3 126/2/3 144/2/3
f 148/2/3 144/2/3 147/2/3
f 149/5/3 140/5/3 139/5/3
f 150/3/3 146/3/3 145/3/3
f 150/5/3 140/5/3 149/5/3
f 150/3/3 145/3/3 140/3/3
f 151/3/3 146/3/3 150/3/3
f 152/1/3 147/1/3 141/1/3
f 152/1/3 141/1/3 83/1/3
f 152/1/3 148/1/3 147/1/3
f 153/1/3 148/1/3 152/1/3
f 154/1/3 148/1/3 153/1/3
f 155/2/3 126/2/3 148/2/3
f 155/1/3 148/1/3 154/1/3
f 156/4/3 95/4/3 146/4/3
f 156/3/3 146/3/3 151/3/3
f 157/4/3 95/4/3 156/4/3
f 158/1/3 152/1/3 83/1/3
f 158/2/3 153/2/3 152/2/3
f 159/1/3 154/1/3 153/1/3
f 159/2/3 153/2/3 158/2/3
f 160/2/3 155/2/3 154/2/3
f 160/1/3 154/1/3 159/1/3
f 161/2/3 126/2/3 155/2/3
f 161/2/3 155/2/3 160/2/3
f 161/5/3 127/5/3 126/5/3
f 162/5/3 127/5/3 161/5/3
f 164/5/3 151/5/3 150/5/3
f 165/3/3 156/3/3 151/3/3
f 165/5/3 151/5/3 164/5/3
f 165/3/3 157/3/3 156/3/3
f 166/3/3 157/3/3 165/3/3
f 167/1/3 160/1/3 159/1/3
f 167/1/3 159/1/3 158/1/3
f 167/1/3 161/1/3 160/1/3
f 168/2/3 162/2/3 161/2/3
f 168/1/3 161/1/3 167/1/3
f 169/5/3 163/5/3 162/5/3
f 169/2/3 162/2/3 168/2/3
f 170/5/3 163/5/3 169/5/3
f 172/3/3 157/3/3 166/3/3
f 172/4/3 95/4/3 157/4/3
f 173/4/3 95/4/3 172/4/3
f 174/1/3 167/1/3 158/1/3
f 175/1/3 167/1/3 174/1/3
f 176/2/3 168/2/3 167/2/3
f 176/1/3 167/1/3 175/1/3
f 176/2/3 170/2/3 169/2/3
f 176/2/3 169/2/3 168/2/3
f 177/2/3 170/2/3 176/2/3
f 178/2/3 170/2/3 177/2/3
f 179/5/3 171/5/3 170/5/3
f 179/2/3 170/2/3 178/2/3
f 180/5/3 171/5/3 179/5/3
f 182/5/3 166/5/3 165/5/3
f 183/3/3 173/3/3 172/3/3
f 183/5/3 166/5/3 182/5/3
f 183/3/3 172/3/3 166/3/3
f 184/3/3 173/3/3 183/3/3
f 185/2/3 175/2/3 174/2/3
f 185/1/3 174/1/3 158/1/3
f 186/1/3 176/1/3 175/1/3
f 186/2/3 175/2/3 185/2/3
f 186/1/3 177/1/3 176/1/3
f 187/2/3 178/2/3 177/2/3
f 187/1/3 177/1/3 186/1/3
f 188/1/3 180/1/3 179/1/3
f 188/2/3 178/2/3 187/2/3
f 188/1/3 179/1/3 178/1/3
f 189/3/3 173/3/3 184/3/3
f 189/4/3 95/4/3 173/4/3
f 190/5/3 90/5/3 95/5/3
f 190/4/3 95/4/3 189/4/3
f 191/5/3 184/5/3 183/5/3
f 192/3/3 189/3/3 184/3/3
f 192/5/3 184/5/3 191/5/3
f 192/3/3 190/3/3 189/3/3
f 193/3/3 190/3/3 192/3/3
f 194/5/3 181/5/3 180/5/3
f 195/5/3 193/5/3 192/5/3
f 196/3/3 190/3/3 193/3/3
f 196/5/3 193/5/3 195/5/3
f 197/5/3 90/5/3 190/5/3
f 197/3/3 190/3/3 196/3/3
f 198/5/3 195/5/3 194/5/3
f 198/5/3 196/5/3 195/5/3
f 198/5/3 197/5/3 196/5/3
f 198/5/3 194/5/3 180/5/3
f 199/1/3 88/1/3 90/1/3
f 199/5/3 197/5/3 198/5/3
f 199/5/3 90/5/3 197/5/3
f 200/5/3 198/5/3 180/5/3
f 200/1/3 199/1/3 198/1/3
f 201/5/3 86/5/3 88/5/3
f 201/1/3 199/1/3 200/1/3
f 201/1/3 88/1/3 199/1/3
f 202/5/3 83/5/3 81/5/3
f 202/1/3 186/1/3 185/1/3
f 202/1/3 187/1/3 186/1/3
f 202/1/3 185/1/3 158/1/3
f 202/1/3 188/1/3 187/1/3
f 202/1/3 158/1/3 83/1/3
f 203/5/3 201/5/3 200/5/3
f 203/1/3 188/1/3 202/1/3
f 203/5/3 200/5/3 180/5/3
f 203/1/3 180/1/3 188/1/3
f 204/5/3 201/5/3 203/5/3
f 205/5/3 86/5/3 201/5/3
f 205/5/3 201/5/3 204/5/3
f 206/5/3 204/5/3 203/5/3
f 206/5/3 202/5/3 81/5/3
f 206/5/3 203/5/3 202/5/3
f 207/5/3 204/5/3 206/5/3
f 208/5/4 209/5/4 210/5/4
f 210/5/4 209/5/4 211/5/4
f 211/5/4 209/5/4 212/5/4
f 211/5/4 212/5/4 214/5/4
f 212/5/4 213/5/4 214/5/4
f 214/5/4 213/5/4 215/5/4
f 211/5/4 214/5/4 216/5/4
f 214/1/4 215/1/4 216/1/4
f 216/1/4 215/1/4 217/1/4
f 211/5/4 216/5/4 218/5/4
f 216/5/4 217/5/4 218/5/4
f 218/5/4 217/5/4 219/5/4
f 219/5/4 217/5/4 220/5/4
f 220/5/4 217/5/4 221/5/4
f 221/5/4 217/5/4 222/5/4
f 220/3/4 221/3/4 223/3/4
f 221/4/4 222/4/4 223/4/4
f 223/4/4 222/4/4 224/4/4
f 219/5/4 220/5/4 225/5/4
f 220/3/4 223/3/4 226/3/4
f 225/5/4 220/5/4 226/5/4
f 223/3/4 224/3/4 226/3/4
f 226/3/4 224/3/4 227/3/4
f 210/1/4 211/1/4 228/1/4
f 228/1/4 211/1/4 229/1/4
f 229/1/4 211/1/4 230/1/4
f 230/1/4 211/1/4 231/1/4
f 227/3/4 224/3/4 232/3/4
f 224/4/4 222/4/4 232/4/4
f 232/4/4 222/4/4 233/4/4
f 210/1/4 228/1/4 234/1/4
f 228/2/4 229/2/4 234/2/4
f 229/1/4 230/1/4 235/1/4
f 234/2/4 229/2/4 235/2/4
f 230/2/4 231/2/4 236/2/4
f 235/1/4 230/1/4 236/1/4
f 231/1/4 211/1/4 237/1/4
f 236/2/4 231/2/4 237/2/4
f 237/1/4 211/1/4 238/1/4
f 211/5/4 218/5/4 239/5/4
f 238/1/4 211/1/4 239/1/4
f 239/5/4 218/5/4 240/5/4
f 226/5/4 227/5/4 241/5/4
f 232/3/4 233/3/4 242/3/4
f 241/5/4 227/5/4 242/5/4
f 227/3/4 232/3/4 242/3/4
f 242/3/4 233/3/4 243/3/4
f 235/1/4 236/1/4 244/1/4
f 237/1/4 238/1/4 244/1/4
f 234/1/4 235/1/4 244/1/4
f 236/1/4 237/1/4 244/1/4
f 210/1/4 234/1/4 244/1/4
f 244/1/4 238/1/4 245/1/4
f 245/1/4 238/1/4 246/1/4
f 246/1/4 238/1/4 247/1/4
f 238/5/4 239/5/4 248/5/4
f 247/1/4 238/1/4 248/1/4
f 248/5/4 239/5/4 249/5/4
f 243/3/4 233/3/4 250/3/4
f 233/4/4 222/4/4 250/4/4
f 250/4/4 222/4/4 251/4/4
f 244/2/4 245/2/4 252/2/4
f 245/1/4 246/1/4 252/1/4
f 246/2/4 247/2/4 253/2/4
f 252/1/4 246/1/4 253/1/4
f 247/5/4 248/5/4 254/5/4
f 253/2/4 247/2/4 254/2/4
f 254/5/4 248/5/4 255/5/4
f 242/5/4 243/5/4 256/5/4
f 250/3/4 251/3/4 257/3/4
f 256/5/4 243/5/4 257/5/4
f 243/3/4 250/3/4 257/3/4
f 257/3/4 251/3/4 258/3/4
f 244/2/4 252/2/4 259/2/4
f 252/2/4 253/2/4 259/2/4
f 210/1/4 244/1/4 259/1/4
f 259/2/4 253/2/4 260/2/4
f 251/4/4 222/4/4 261/4/4
f 258/3/4 251/3/4 261/3/4
f 261/4/4 222/4/4 262/4/4
f 259/1/4 260/1/4 263/1/4
f 210/1/4 259/1/4 263/1/4
f 263/1/4 260/1/4 264/1/4
f 257/5/4 258/5/4 265/5/4
f 261/3/4 262/3/4 266/3/4
f 265/5/4 258/5/4 266/5/4
f 258/3/4 261/3/4 266/3/4
f 266/3/4 262/3/4 267/3/4
f 263/2/4 264/2/4 268/2/4
f 210/1/4 263/1/4 268/1/4
f 264/1/4 260/1/4 269/1/4
f 268/2/4 264/2/4 269/2/4
f 269/1/4 260/1/4 270/1/4
f 260/2/4 253/2/4 271/2/4
f 270/1/4 260/1/4 271/1/4
f 262/4/4 222/4/4 272/4/4
f 267/3/4 262/3/4 272/3/4
f 272/4/4 222/4/4 273/4/4
f 269/1/4 270/1/4 274/1/4
f 270/2/4 271/2/4 274/2/4
f 268/1/4 269/1/4 274/1/4
f 271/2/4 253/2/4 275/2/4
f 274/2/4 271/2/4 275/2/4
f 266/5/4 267/5/4 276/5/4
f 272/3/4 273/3/4 277/3/4
f 276/5/4 267/5/4 277/5/4
f 267/3/4 272/3/4 277/3/4
f 277/3/4 273/3/4 278/3/4
f 268/1/4 274/1/4 279/1/4
f 210/1/4 268/1/4 279/1/4
f 274/1/4 275/1/4 279/1/4
f 279/1/4 275/1/4 280/1/4
f 280/1/4 275/1/4 281/1/4
f 275/2/4 253/2/4 282/2/4
f 281/1/4 275/1/4 282/1/4
f 273/4/4 222/4/4 283/4/4
f 278/3/4 273/3/4 283/3/4
f 283/4/4 222/4/4 284/4/4
f 210/1/4 279/1/4 285/1/4
f 279/2/4 280/2/4 285/2/4
f 280/1/4 281/1/4 286/1/4
f 285/2/4 280/2/4 286/2/4
f 281/2/4 282/2/4 287/2/4
f 286/1/4 281/1/4 287/1/4
f 282/2/4 253/2/4 288/2/4
f 287/2/4 282/2/4 288/2/4
f 253/5/4 254/5/4 288/5/4
f 288/5/4 254/5/4 289/5/4
f 277/5/4 278/5/4 291/5/4
f 278/3/4 283/3/4 292/3/4
f 291/5/4 278/5/4 292/5/4
f 283/3/4 284/3/4 292/3/4
f 292/3/4 284/3/4 293/3/4
f 286/1/4 287/1/4 294/1/4
f 285/1/4 286/1/4 294/1/4
f 287/1/4 288/1/4 294/1/4
f 288/2/4 289/2/4 295/2/4
f 294/1/4 288/1/4 295/1/4
f 289/5/4 290/5/4 296/5/4
f 295/2/4 289/2/4 296/2/4
f 296/5/4 290/5/4 297/5/4
f 293/3/4 284/3/4 299/3/4
f 284/4/4 222/4/4 299/4/4
f 299/4/4 222/4/4 300/4/4
f 285/1/4 294/1/4 301/1/4
f 301/1/4 294/1/4 302/1/4
f 294/2/4 295/2/4 303/2/4
f 302/1/4 294/1/4 303/1/4
f 296/2/4 297/2/4 303/2/4
f 295/2/4 296/2/4 303/2/4
f 303/2/4 297/2/4 304/2/4
f 304/2/4 297/2/4 305/2/4
f 297/5/4 298/5/4 306/5/4
f 305/2/4 297/2/4 306/2/4
f 306/5/4 298/5/4 307/5/4
f 292/5/4 293/5/4 309/5/4
f 299/3/4 300/3/4 310/3/4
f 309/5/4 293/5/4 310/5/4
f 293/3/4 299/3/4 310/3/4
f 310/3/4 300/3/4 311/3/4
f 301/2/4 302/2/4 312/2/4
f 285/1/4 301/1/4 312/1/4
f 302/1/4 303/1/4 313/1/4
f 312/2/4 302/2/4 313/2/4
f 303/1/4 304/1/4 313/1/4
f 304/2/4 305/2/4 314/2/4
f 313/1/4 304/1/4 314/1/4
f 306/1/4 307/1/4 315/1/4
f 314/2/4 305/2/4 315/2/4
f 305/1/4 306/1/4 315/1/4
f 311/3/4 300/3/4 316/3/4
f 300/4/4 222/4/4 316/4/4
f 222/5/4 217/5/4 317/5/4
f 316/4/4 222/4/4 317/4/4
f 310/5/4 311/5/4 318/5/4
f 311/3/4 316/3/4 319/3/4
f 318/5/4 311/5/4 319/5/4
f 316/3/4 317/3/4 319/3/4
f 319/3/4 317/3/4 320/3/4
f 307/5/4 308/5/4 321/5/4
f 319/5/4 320/5/4 322/5/4
f 320/3/4 317/3/4 323/3/4
f 322/5/4 320/5/4 323/5/4
f 317/5/4 217/5/4 324/5/4
f 323/3/4 317/3/4 324/3/4
f 321/5/4 322/5/4 325/5/4
f 322/5/4 323/5/4 325/5/4
f 323/5/4 324/5/4 325/5/4
f 307/5/4 321/5/4 325/5/4
f 217/1/4 215/1/4 326/1/4
f 325/5/4 324/5/4 326/5/4
f 324/5/4 217/5/4 326/5/4
f 307/5/4 325/5/4 327/5/4
f 325/1/4 326/1/4 327/1/4
f 215/5/4 213/5/4 328/5/4
f 327/1/4 326/1/4 328/1/4
f 326/1/4 215/1/4 328/1/4
f 208/5/4 210/5/4 329/5/4
f 312/1/4 313/1/4 329/1/4
f 313/1/4 314/1/4 329/1/4
f 285/1/4 312/1/4 329/1/4
f 314/1/4 315/1/4 329/1/4
f 210/1/4 285/1/4 329/1/4
f 327/5/4 328/5/4 330/5/4
f 329/1/4 315/1/4 330/1/4
f 307/5/4 327/5/4 330/5/4
f 315/1/4 307/1/4 330/1/4
f 330/5/4 328/5/4 331/5/4
f 328/5/4 213/5/4 332/5/4
f 331/5/4 328/5/4 332/5/4
f 330/5/4 331/5/4 333/5/4
f 208/5/4 329/5/4 333/5/4
f 329/5/4 330/5/4 333/5/4
f 333/5/4 331/5/4 334/5/4
f 337/5/5 336/5/5 335/5/5
f 338/5/5 336/5/5 337/5/5
f 341/5/5 340/5/5 339/5/5
f 342/5/5 340/5/5 341/5/5
f 345/5/5 344/5/5 343/5/5
f 346/5/5 344/5/5 345/5/5
f 349/5/5 348/5/5 347/5/5
f 350/5/5 348/5/5 349/5/5
f 353/5/5 352/5/5 351/5/5
f 354/5/5 352/5/5 353/5/5
f 357/5/5 356/5/5 355/5/5
f 358/5/5 356/5/5 357/5/5
f 361/5/5 360/5/5 359/5/5
f 362/5/5 360/5/5 361/5/5
f 365/5/5 364/5/5 363/5/5
f 366/5/5 364/5/5 365/5/5
f 369/5/5 368/5/5 367/5/5
f 370/5/5 368/5/5 369/5/5
f 373/5/5 372/5/5 371/5/5
f 374/5/5 372/5/5 373/5/5
f 375/5/6 376/5/6 377/5/6
f 377/5/6 376/5/6 378/5/6
f 379/5/6 380/5/6 383/5/6
f 383/5/6 380/5/6 384/5/6
f 381/5/6 382/5/6 385/5/6
f 385/5/6 382/5/6 386/5/6
f 387/5/6 388/5/6 391/5/6
f 391/5/6 388/5/6 392/5/6
f 389/5/6 390/5/6 393/5/6
f 393/5/6 390/5/6 394/5/6
f 395/5/6 396/5/6 403/5/6
f 403/5/6 396/5/6 404/5/6
f 397/5/6 398/5/6 405/5/6
f 405/5/6 398/5/6 406/5/6
f 399/5/6 400/5/6 407/5/6
f 407/5/6 400/5/6 408/5/6
f 401/5/6 402/5/6 409/5/6
f 409/5/6 402/5/6 410/5/6
f 411/5/6 412/5/6 413/5/6
f 413/5/6 412/5/6 414/5/6
